<?xml version="1.0" encoding="UTF-8"?>
<svg width="1200pt" height="1200pt" version="1.1" viewBox="0 0 1200 1200" xmlns="http://www.w3.org/2000/svg">
 <path d="m519.95 256.73c-16.004-102.39-99.992-28.797-99.992-28.797s61.598-127.97 133.59-87.996c71.988 40 346.34 807.89 346.34 807.89s247.16 20.805 239.96 59.992c-7.1992 39.188-359.95 59.992-539.92 59.992-179.97 0-537.52-20.805-539.92-59.992-2.3984-39.188 299.95-59.992 299.95-59.992s175.96-588.7 159.98-691.09zm46.793 401.53s-23.996 56.992-23.996 56.992l-64.406 3 53.609 41.395-10.199 55.793 47.395-37.195 61.191 36.809s-31.797-61-31.797-62.605c0-1.582 42.594-27.598 42.594-27.598l-54.59-11.398-19.797-55.191zm173.88 158.79s-15.91 37.195-15.91 37.195-37.793-0.60156-37.793-0.60156l26.109 26.109-17.109 46.48 39.594-29.684 33.906 17.996-10.512-33.309 28.797-21.598s-31.797-9-34.195-9c-2.3984 0-12.887-33.594-12.887-33.594zm-109.5-337.94-17.684 38.684-41.105-0.28906 26.109 24.285s-20.996 34.508-19.797 34.508c1.1992 0 40.195-12.91 40.195-12.91s28.195 26.109 28.195 24.91c0-1.1992 3.2891-37.195 3.2891-37.195l37.508-25.195s-41.395-7.1992-41.395-7.1992l-15.309-39.594z" fill="#ffffff"/>
</svg>
